<svg version="1.1" id="Layer_1" xmlns="http://www.w3.org/2000/svg" xmlns:xlink="http://www.w3.org/1999/xlink" x="0px" y="0px"
	 width="100%" viewBox="0 0 200 200" enable-background="new 0 0 200 200" xml:space="preserve">
<path fill="#4349FE" opacity="1.000000" stroke="none" 
	d="
M1.000000,167.000000 
	C1.000000,126.645775 1.000000,86.291542 1.317441,45.280224 
	C2.338765,39.842484 3.042650,35.061840 3.712169,30.224255 
	C3.677804,30.167315 3.788794,30.094015 4.101459,29.884651 
	C4.893688,28.051180 5.373252,26.427074 5.863401,24.857906 
	C5.873987,24.912844 5.763725,24.931913 5.997952,24.814384 
	C6.491114,24.464897 6.750048,24.232943 6.996120,23.713829 
	C6.948291,23.238258 6.913324,23.049847 6.888044,22.909031 
	C6.897732,22.956629 6.802247,22.974508 7.029901,22.775219 
	C7.500103,22.033957 7.742651,21.491982 7.998365,20.972565 
	C8.011532,20.995123 7.959414,20.991568 8.295652,20.901859 
	C9.400463,19.503782 10.169034,18.195415 10.947629,16.928654 
	C10.957652,16.970261 10.874271,16.989605 11.094559,16.830130 
	C11.523707,16.376329 11.732569,16.082006 11.933828,15.849756 
	C11.926226,15.911832 11.802279,15.895037 12.110617,15.806117 
	C12.887473,15.057595 13.355991,14.397993 13.825409,13.782253 
	C13.826307,13.826114 13.738583,13.824483 14.052641,13.756895 
	C14.874807,13.059325 15.382915,12.429342 15.900406,11.861040 
	C15.909791,11.922722 15.786191,11.939857 16.024145,11.806844 
	C16.504555,11.406201 16.747009,11.138572 16.978561,10.913584 
	C16.967661,10.956226 16.882566,10.933691 17.240170,10.921822 
	C18.729046,9.922796 19.860321,8.935640 20.993141,7.977681 
	C20.994686,8.006879 20.940651,7.984526 21.236618,7.922021 
	C22.013157,7.505339 22.493725,7.151161 22.957384,6.857529 
	C22.940474,6.918074 22.819769,6.882904 23.208519,6.849374 
	C28.704210,5.701728 33.837006,4.691034 38.905689,3.423883 
	C41.007736,2.898379 42.972698,1.824499 45.000000,1.000000 
	C82.020897,1.000000 119.041786,1.000000 156.718109,1.318036 
	C162.022461,2.269446 166.671371,2.902820 171.294006,3.511581 
	C171.267700,3.486970 171.322556,3.440277 171.483932,3.773888 
	C173.493683,4.691117 175.342041,5.274735 177.147614,5.861456 
	C177.104828,5.864560 177.101013,5.778830 177.207520,6.117205 
	C178.562363,6.964827 179.810684,7.474075 181.029877,7.994430 
	C181.000732,8.005538 180.994843,7.943439 181.169708,8.149636 
	C181.655960,8.535022 181.967361,8.714211 182.178802,8.908489 
	C182.078842,8.923579 182.050171,8.723447 182.244614,8.940989 
	C182.782242,9.337548 183.125412,9.516567 183.356750,9.693812 
	C183.244904,9.692039 183.253891,9.468499 183.408813,9.755507 
	C184.109879,10.362579 184.656052,10.682646 185.395004,11.046442 
	C185.848206,11.213431 186.001160,11.417313 186.202393,11.950606 
	C186.658066,12.448629 186.958008,12.697861 187.152924,12.949545 
	C187.047882,12.951998 187.043930,12.741899 187.230865,12.990660 
	C187.754959,13.478827 188.092148,13.718235 188.709915,14.109099 
	C194.471481,20.332182 199.025803,26.816582 199.114624,35.501369 
	C199.123199,36.340588 200.342636,37.167423 201.000000,38.000004 
	C201.000000,79.687561 201.000000,121.375122 200.635818,163.669525 
	C199.859879,164.958984 199.180862,165.602905 199.075592,166.329926 
	C196.643845,183.120224 184.952484,195.747360 168.477921,199.361679 
	C166.621475,199.768951 164.824539,200.447342 163.000000,201.000000 
	C123.979103,201.000000 84.958214,201.000000 45.276779,200.682877 
	C38.691803,199.281845 32.767365,198.197922 26.889561,197.096283 
	C26.936193,197.078568 26.970362,197.172302 26.780397,196.876617 
	C25.335896,196.097076 24.081358,195.613235 22.884106,195.106262 
	C22.941389,195.083160 22.986313,195.198242 22.785961,194.967651 
	C22.036781,194.497696 21.487951,194.258362 20.966917,194.008789 
	C20.994715,193.998566 20.987684,194.057388 20.914051,193.710693 
	C19.170984,192.284302 17.501551,191.204605 15.867071,190.119370 
	C15.902026,190.113831 15.906618,190.184464 15.816183,189.867706 
	C15.041671,189.087357 14.357594,188.623749 13.383465,188.006119 
	C9.062277,180.901382 5.031138,173.950699 1.000000,167.000000 
M114.301910,40.573364 
	C109.566971,40.384010 104.828369,39.987820 100.098274,40.071720 
	C96.412674,40.137093 92.737663,40.799786 88.974251,42.015503 
	C88.373505,52.951370 84.973122,62.864483 78.161880,71.521301 
	C70.249817,81.577240 59.819099,87.066299 47.230362,88.041115 
	C47.230362,96.459251 47.230362,104.362053 47.230362,112.985489 
	C65.546120,112.985489 83.505234,112.985489 102.063469,112.985489 
	C88.910919,128.381546 82.096550,147.224991 84.811966,160.024658 
	C93.184914,160.024658 101.601257,160.024658 110.047791,160.024658 
	C113.743256,133.577194 126.845863,116.215240 154.841339,112.339378 
	C154.841339,104.370865 154.841339,96.248779 154.204315,87.639061 
	C152.248947,87.416878 150.294510,87.011803 148.338074,87.001976 
	C134.893021,86.934441 121.447090,87.001823 108.002701,86.883194 
	C105.930153,86.864899 103.864082,86.114326 102.085701,85.107857 
	C102.938087,84.100616 103.876160,83.153366 104.629753,82.076965 
	C113.290993,69.705780 116.460777,55.936237 114.301910,40.573364 
z"/>
<path fill="#F9FAFE" opacity="1.000000" stroke="none" 
	d="
M163.468658,201.000000 
	C164.824539,200.447342 166.621475,199.768951 168.477921,199.361679 
	C184.952484,195.747360 196.643845,183.120224 199.075592,166.329926 
	C199.180862,165.602905 199.859879,164.958984 200.635818,164.138184 
	C201.000000,176.260941 201.000000,188.521866 201.000000,201.000000 
	C188.646622,201.000000 176.291962,201.000000 163.468658,201.000000 
z"/>
<path fill="#FAFBFE" opacity="1.000000" stroke="none" 
	d="
M186.046646,11.701816 
	C186.001160,11.417313 185.848206,11.213431 185.243134,10.763412 
	C184.350281,10.113933 183.802078,9.791215 183.253891,9.468498 
	C183.253891,9.468499 183.244904,9.692039 183.199844,9.431712 
	C182.786575,9.022072 182.418381,8.872758 182.050171,8.723445 
	C182.050171,8.723447 182.078842,8.923579 182.052856,8.649685 
	C181.682877,8.231673 181.338852,8.087556 180.994843,7.943439 
	C180.994843,7.943439 181.000732,8.005538 180.844193,7.718853 
	C179.492111,6.881054 178.296555,6.329940 177.101013,5.778828 
	C177.101013,5.778830 177.104828,5.864560 176.936676,5.569654 
	C174.953186,4.663257 173.137878,4.051766 171.322556,3.440276 
	C171.322556,3.440277 171.267700,3.486970 170.975372,3.319613 
	C168.455368,2.434837 166.227676,1.717419 164.000000,1.000000 
	C176.259949,1.000000 188.519897,1.000000 201.000000,1.000000 
	C201.000000,13.020000 201.000000,25.041342 201.000000,37.531345 
	C200.342636,37.167423 199.123199,36.340588 199.114624,35.501369 
	C199.025803,26.816582 194.471481,20.332182 188.557266,13.823216 
	C187.763992,13.171218 187.403961,12.956559 187.043930,12.741899 
	C187.043930,12.741899 187.047882,12.951998 187.049377,12.659182 
	C186.716141,12.144849 186.381393,11.923333 186.046646,11.701816 
z"/>
<path fill="#FAFBFE" opacity="1.000000" stroke="none" 
	d="
M3.788794,30.094015 
	C3.788794,30.094015 3.677804,30.167315 3.448861,30.530266 
	C2.479945,33.262146 1.739972,35.631073 1.000000,38.000000 
	C1.000000,25.744272 1.000000,13.488544 1.000000,1.000000 
	C11.686436,1.000000 22.374559,1.000000 33.500298,1.379849 
	C30.231867,3.467433 26.525818,5.175168 22.819769,6.882903 
	C22.819769,6.882904 22.940474,6.918074 22.649183,6.900359 
	C21.885479,7.249938 21.413065,7.617232 20.940651,7.984526 
	C20.940651,7.984526 20.994686,8.006879 20.672466,8.042328 
	C19.194353,9.029749 18.038460,9.981720 16.882566,10.933691 
	C16.882566,10.933691 16.967661,10.956226 16.700020,10.990715 
	C16.216982,11.330088 16.001587,11.634973 15.786192,11.939857 
	C15.786191,11.939857 15.909791,11.922722 15.606924,11.957471 
	C14.782233,12.602974 14.260407,13.213729 13.738583,13.824483 
	C13.738583,13.824483 13.826307,13.826114 13.536720,13.893473 
	C12.765514,14.605566 12.283896,15.250301 11.802279,15.895037 
	C11.802279,15.895037 11.926226,15.911832 11.665870,15.956806 
	C11.228433,16.331055 11.051353,16.660330 10.874271,16.989605 
	C10.874271,16.989605 10.957652,16.970261 10.653301,17.070084 
	C9.552437,18.443794 8.755925,19.717680 7.959414,20.991568 
	C7.959414,20.991568 8.011532,20.995123 7.746440,21.147091 
	C7.254981,21.857542 7.028614,22.416025 6.802247,22.974508 
	C6.802247,22.974508 6.897732,22.956629 6.659932,23.015965 
	C6.320607,23.385378 6.219081,23.695457 5.977447,24.217400 
	C5.812800,24.596815 5.788263,24.764364 5.763725,24.931913 
	C5.763725,24.931913 5.873987,24.912844 5.579777,25.082317 
	C4.786643,26.865868 4.287718,28.479940 3.788794,30.094015 
z"/>
<path fill="#FAFBFE" opacity="1.000000" stroke="none" 
	d="
M1.000000,167.468658 
	C5.031138,173.950699 9.062277,180.901382 13.509114,188.291138 
	C14.585414,189.214951 15.246015,189.699707 15.906617,190.184464 
	C15.906618,190.184464 15.902026,190.113831 16.003958,190.421600 
	C17.733152,191.838715 19.360418,192.948044 20.987684,194.057388 
	C20.987684,194.057388 20.994715,193.998566 21.128508,194.275848 
	C21.836971,194.768158 22.411642,194.983200 22.986313,195.198242 
	C22.986313,195.198242 22.941389,195.083160 23.072517,195.390350 
	C24.459217,196.189117 25.714788,196.680710 26.970360,197.172302 
	C26.970362,197.172302 26.936193,197.078568 27.117481,197.390686 
	C30.199181,198.801880 33.099590,199.900940 36.000000,201.000000 
	C24.407816,201.000000 12.815631,201.000000 1.000000,201.000000 
	C1.000000,189.980118 1.000000,178.958710 1.000000,167.468658 
z"/>
<path fill="#585BDE" opacity="1.000000" stroke="none" 
	d="
M23.208519,6.849374 
	C26.525818,5.175168 30.231867,3.467433 33.968956,1.379849 
	C37.361286,1.000000 40.722576,1.000000 44.541931,1.000000 
	C42.972698,1.824499 41.007736,2.898379 38.905689,3.423883 
	C33.837006,4.691034 28.704210,5.701728 23.208519,6.849374 
z"/>
<path fill="#5557DF" opacity="1.000000" stroke="none" 
	d="
M36.449982,201.000000 
	C33.099590,199.900940 30.199181,198.801880 27.070847,197.408417 
	C32.767365,198.197922 38.691803,199.281845 44.808121,200.682877 
	C42.299988,201.000000 39.599972,201.000000 36.449982,201.000000 
z"/>
<path fill="#5356D9" opacity="1.000000" stroke="none" 
	d="
M1.000000,38.437500 
	C1.739972,35.631073 2.479945,33.262146 3.483225,30.587204 
	C3.042650,35.061840 2.338765,39.842484 1.317441,44.811565 
	C1.000000,42.958332 1.000000,40.916668 1.000000,38.437500 
z"/>
<path fill="#5556DB" opacity="1.000000" stroke="none" 
	d="
M163.562500,1.000000 
	C166.227676,1.717419 168.455368,2.434837 171.001678,3.344224 
	C166.671371,2.902820 162.022461,2.269446 157.186768,1.318036 
	C159.041672,1.000000 161.083328,1.000000 163.562500,1.000000 
z"/>
<path fill="#FCFCFE" opacity="1.000000" stroke="none" 
	d="
M154.841339,88.126694 
	C154.841339,96.248779 154.841339,104.370865 154.841339,112.339378 
	C126.845863,116.215240 113.743256,133.577194 110.047791,160.024658 
	C101.601257,160.024658 93.184914,160.024658 84.811966,160.024658 
	C82.096550,147.224991 88.910919,128.381546 102.063469,112.985489 
	C83.505234,112.985489 65.546120,112.985489 47.230362,112.985489 
	C47.230362,104.362053 47.230362,96.459251 47.230362,88.041115 
	C59.819099,87.066299 70.249817,81.577240 78.161880,71.521301 
	C84.973122,62.864483 88.373505,52.951370 89.480881,41.591194 
	C98.328430,41.112610 106.669342,41.058334 115.010262,41.004059 
	C116.460777,55.936237 113.290993,69.705780 104.629753,82.076965 
	C103.876160,83.153366 102.938087,84.100616 101.609161,85.587891 
	C99.685455,89.969200 103.090431,87.914131 103.846313,87.921944 
	C120.843552,88.097488 137.842621,88.095329 154.841339,88.126694 
z"/>
<path fill="#4D52C2" opacity="1.000000" stroke="none" 
	d="
M154.522827,87.882874 
	C137.842621,88.095329 120.843552,88.097488 103.846313,87.921944 
	C103.090431,87.914131 99.685455,89.969200 101.463821,85.885162 
	C103.864082,86.114326 105.930153,86.864899 108.002701,86.883194 
	C121.447090,87.001823 134.893021,86.934441 148.338074,87.001976 
	C150.294510,87.011803 152.248947,87.416878 154.522827,87.882874 
z"/>
<path fill="#484EDA" opacity="1.000000" stroke="none" 
	d="
M114.656082,40.788712 
	C106.669342,41.058334 98.328430,41.112610 89.522728,41.181961 
	C92.737663,40.799786 96.412674,40.137093 100.098274,40.071720 
	C104.828369,39.987820 109.566971,40.384010 114.656082,40.788712 
z"/>
<path fill="#5557DF" opacity="1.000000" stroke="none" 
	d="
M20.914051,193.710693 
	C19.360418,192.948044 17.733152,191.838715 15.969002,190.427139 
	C17.501551,191.204605 19.170984,192.284302 20.914051,193.710693 
z"/>
<path fill="#585BDE" opacity="1.000000" stroke="none" 
	d="
M8.295652,20.901859 
	C8.755925,19.717680 9.552437,18.443794 10.643278,17.028477 
	C10.169034,18.195415 9.400463,19.503782 8.295652,20.901859 
z"/>
<path fill="#585BDE" opacity="1.000000" stroke="none" 
	d="
M17.240170,10.921822 
	C18.038460,9.981720 19.194353,9.029749 20.670919,8.013131 
	C19.860321,8.935640 18.729046,9.922796 17.240170,10.921822 
z"/>
<path fill="#5556DB" opacity="1.000000" stroke="none" 
	d="
M171.483932,3.773888 
	C173.137878,4.051766 174.953186,4.663257 176.979462,5.566550 
	C175.342041,5.274735 173.493683,4.691117 171.483932,3.773888 
z"/>
<path fill="#5356D9" opacity="1.000000" stroke="none" 
	d="
M4.101459,29.884651 
	C4.287718,28.479940 4.786643,26.865868 5.569192,25.027380 
	C5.373252,26.427074 4.893688,28.051180 4.101459,29.884651 
z"/>
<path fill="#5556DB" opacity="1.000000" stroke="none" 
	d="
M177.207520,6.117203 
	C178.296555,6.329940 179.492111,6.881054 180.873337,7.707746 
	C179.810684,7.474075 178.562363,6.964827 177.207520,6.117203 
z"/>
<path fill="#5557DF" opacity="1.000000" stroke="none" 
	d="
M26.780396,196.876617 
	C25.714788,196.680710 24.459217,196.189117 23.015234,195.413452 
	C24.081358,195.613235 25.335896,196.097076 26.780396,196.876617 
z"/>
<path fill="#585BDE" opacity="1.000000" stroke="none" 
	d="
M12.110617,15.806116 
	C12.283896,15.250301 12.765514,14.605566 13.535822,13.849611 
	C13.355991,14.397993 12.887473,15.057595 12.110617,15.806116 
z"/>
<path fill="#5557DF" opacity="1.000000" stroke="none" 
	d="
M15.816183,189.867706 
	C15.246015,189.699707 14.585414,189.214951 13.799164,188.445175 
	C14.357594,188.623749 15.041671,189.087357 15.816183,189.867706 
z"/>
<path fill="#585BDE" opacity="1.000000" stroke="none" 
	d="
M14.052641,13.756895 
	C14.260407,13.213729 14.782233,12.602974 15.597540,11.895790 
	C15.382915,12.429342 14.874807,13.059325 14.052641,13.756895 
z"/>
<path fill="#585BDE" opacity="1.000000" stroke="none" 
	d="
M7.029901,22.775219 
	C7.028614,22.416025 7.254981,21.857542 7.733274,21.124533 
	C7.742651,21.491982 7.500103,22.033957 7.029901,22.775219 
z"/>
<path fill="#5557DF" opacity="1.000000" stroke="none" 
	d="
M22.785963,194.967651 
	C22.411642,194.983200 21.836971,194.768158 21.100710,194.286072 
	C21.487951,194.258362 22.036781,194.497696 22.785963,194.967651 
z"/>
<path fill="#5556DB" opacity="1.000000" stroke="none" 
	d="
M183.408813,9.755505 
	C183.802078,9.791215 184.350281,10.113933 185.050354,10.719681 
	C184.656052,10.682646 184.109879,10.362579 183.408813,9.755505 
z"/>
<path fill="#585BDE" opacity="1.000000" stroke="none" 
	d="
M21.236618,7.922021 
	C21.413065,7.617232 21.885479,7.249938 22.666094,6.839814 
	C22.493725,7.151161 22.013157,7.505339 21.236618,7.922021 
z"/>
<path fill="#5356D9" opacity="1.000000" stroke="none" 
	d="
M5.997952,24.814384 
	C5.788263,24.764364 5.812800,24.596815 6.200191,24.216236 
	C6.563044,24.003204 7.008982,24.000986 7.008982,24.000986 
	C6.750048,24.232943 6.491114,24.464897 5.997952,24.814384 
z"/>
<path fill="#5556DB" opacity="1.000000" stroke="none" 
	d="
M181.169708,8.149636 
	C181.338852,8.087556 181.682877,8.231673 182.152832,8.634594 
	C181.967361,8.714211 181.655960,8.535022 181.169708,8.149636 
z"/>
<path fill="#585BDE" opacity="1.000000" stroke="none" 
	d="
M6.996120,23.713829 
	C7.008982,24.000986 6.563044,24.003204 6.340300,24.004370 
	C6.219081,23.695457 6.320607,23.385378 6.650245,22.968369 
	C6.913324,23.049847 6.948291,23.238258 6.996120,23.713829 
z"/>
<path fill="#585BDE" opacity="1.000000" stroke="none" 
	d="
M11.094559,16.830130 
	C11.051353,16.660330 11.228433,16.331055 11.673472,15.894731 
	C11.732569,16.082006 11.523707,16.376329 11.094559,16.830130 
z"/>
<path fill="#5556DB" opacity="1.000000" stroke="none" 
	d="
M187.230865,12.990660 
	C187.403961,12.956559 187.763992,13.171218 188.276672,13.671760 
	C188.092148,13.718235 187.754959,13.478827 187.230865,12.990660 
z"/>
<path fill="#5556DB" opacity="1.000000" stroke="none" 
	d="
M186.202393,11.950607 
	C186.381393,11.923333 186.716141,12.144849 187.154419,12.656729 
	C186.958008,12.697861 186.658066,12.448629 186.202393,11.950607 
z"/>
<path fill="#585BDE" opacity="1.000000" stroke="none" 
	d="
M16.024147,11.806844 
	C16.001587,11.634973 16.216982,11.330088 16.710920,10.948072 
	C16.747009,11.138572 16.504555,11.406201 16.024147,11.806844 
z"/>
<path fill="#5556DB" opacity="1.000000" stroke="none" 
	d="
M182.244614,8.940987 
	C182.418381,8.872758 182.786575,9.022072 183.311691,9.433486 
	C183.125412,9.516567 182.782242,9.337548 182.244614,8.940987 
z"/>
</svg>